<svg width="36" height="35" viewBox="0 0 36 35" fill="none" xmlns="http://www.w3.org/2000/svg">
<g clip-path="url(#clip0_41_11)">
<path d="M6.52366 0C2.98345 0 0.132874 2.85057 0.132874 6.39079V28.6092C0.132874 32.1495 2.98345 35 6.52366 35H18.5659V21.3172H14.9477V16.391H18.5659V12.1822C18.5659 8.87558 20.7036 5.83954 25.6282 5.83954C27.6221 5.83954 29.0965 6.03096 29.0965 6.03096L28.9805 10.6313C28.9805 10.6313 27.4768 10.6171 25.836 10.6171C24.0601 10.6171 23.7754 11.4353 23.7754 12.7937V16.391H29.1216L28.8887 21.3172H23.7754V35.0001H28.7421C32.2823 35.0001 35.1329 32.1495 35.1329 28.6093V6.39083C35.1329 2.85061 32.2823 3.5e-05 28.7421 3.5e-05H6.52363L6.52366 0Z" fill="white"/>
</g>
<defs>
<clipPath id="clip0_41_11">
<rect width="35" height="35" fill="white" transform="translate(0.132874)"/>
</clipPath>
</defs>
</svg>
