<svg width="36" height="35" viewBox="0 0 36 35" fill="none" xmlns="http://www.w3.org/2000/svg">
<g clip-path="url(#clip0_41_13)">
<path d="M17.6282 11.664C14.4148 11.664 11.7925 14.2863 11.7925 17.4997C11.7925 20.713 14.4148 23.3354 17.6282 23.3354C20.8415 23.3354 23.4639 20.713 23.4639 17.4997C23.4639 14.2863 20.8415 11.664 17.6282 11.664ZM35.1309 17.4997C35.1309 15.0831 35.1528 12.6884 35.0171 10.2762C34.8814 7.47434 34.2422 4.9877 32.1934 2.93886C30.1401 0.885633 27.6579 0.250841 24.856 0.115127C22.4395 -0.0205873 20.0448 0.00130217 17.6325 0.00130217C15.216 0.00130217 12.8213 -0.0205873 10.4091 0.115127C7.60721 0.250841 5.12058 0.890011 3.07173 2.93886C1.01851 4.99208 0.383715 7.47434 0.248 10.2762C0.112286 12.6928 0.134176 15.0875 0.134176 17.4997C0.134176 19.9119 0.112286 22.311 0.248 24.7232C0.383715 27.525 1.02288 30.0116 3.07173 32.0605C5.12496 34.1137 7.60721 34.7485 10.4091 34.8842C12.8256 35.0199 15.2203 34.998 17.6325 34.998C20.0491 34.998 22.4438 35.0199 24.856 34.8842C27.6579 34.7485 30.1445 34.1093 32.1934 32.0605C34.2466 30.0073 34.8814 27.525 35.0171 24.7232C35.1572 22.311 35.1309 19.9163 35.1309 17.4997ZM17.6282 26.4787C12.6593 26.4787 8.64915 22.4686 8.64915 17.4997C8.64915 12.5308 12.6593 8.52065 17.6282 8.52065C22.5971 8.52065 26.6072 12.5308 26.6072 17.4997C26.6072 22.4686 22.5971 26.4787 17.6282 26.4787ZM26.9749 10.2499C25.8148 10.2499 24.8779 9.31305 24.8779 8.15291C24.8779 6.99277 25.8148 6.05591 26.9749 6.05591C28.1351 6.05591 29.0719 6.99277 29.0719 8.15291C29.0723 8.42839 29.0183 8.70123 28.913 8.9558C28.8078 9.21038 28.6533 9.44169 28.4585 9.63648C28.2637 9.83128 28.0324 9.98573 27.7778 10.091C27.5233 10.1963 27.2504 10.2503 26.9749 10.2499Z" fill="white"/>
</g>
<defs>
<clipPath id="clip0_41_13">
<rect width="35" height="35" fill="white" transform="translate(0.132874)"/>
</clipPath>
</defs>
</svg>
