<svg width="36" height="35" viewBox="0 0 36 35" fill="none" xmlns="http://www.w3.org/2000/svg">
<g clip-path="url(#clip0_41_6)">
<path d="M29.2995 10.9831C28.4488 11.3628 27.5298 11.6211 26.5424 11.7578C27.5754 11.1502 28.2817 10.2615 28.6615 9.0918C27.6741 9.66905 26.6563 10.0564 25.6081 10.2539C24.6815 9.2513 23.5194 8.75 22.1218 8.75C20.8002 8.75 19.6723 9.21712 18.738 10.1514C17.8038 11.0856 17.3367 12.2135 17.3367 13.5352C17.3367 13.9757 17.3746 14.3403 17.4506 14.6289C15.4909 14.5226 13.6528 14.0289 11.9363 13.1478C10.2197 12.2667 8.76135 11.0894 7.56126 9.61589C7.12072 10.3754 6.90045 11.1806 6.90045 12.0312C6.90045 13.763 7.59164 15.0922 8.97402 16.0189C8.26004 16.0037 7.5005 15.8062 6.69537 15.4264V15.472C6.69537 16.6113 7.07515 17.6253 7.8347 18.514C8.59424 19.4027 9.52849 19.9533 10.6374 20.166C10.1969 20.2875 9.80952 20.3483 9.47532 20.3483C9.27784 20.3483 8.98162 20.3179 8.58665 20.2572C8.90566 21.2142 9.47152 22.0041 10.2842 22.627C11.097 23.2498 12.0198 23.5688 13.0528 23.584C11.2906 24.9512 9.30822 25.6348 7.10553 25.6348C6.71056 25.6348 6.33079 25.612 5.96621 25.5664C8.21447 26.9944 10.6602 27.7083 13.3034 27.7083C15.0048 27.7083 16.5999 27.4387 18.0886 26.8994C19.5773 26.3601 20.8534 25.6386 21.9167 24.7347C22.9801 23.8308 23.8954 22.7903 24.6625 21.613C25.4296 20.4357 25.9993 19.2052 26.3715 17.9216C26.7437 16.6379 26.9297 15.3581 26.9297 14.082C26.9297 13.8086 26.9222 13.6035 26.907 13.4668C27.864 12.7832 28.6615 11.9553 29.2995 10.9831ZM35.1329 6.5625V28.4375C35.1329 30.2452 34.4911 31.7909 33.2074 33.0745C31.9238 34.3582 30.3781 35 28.5704 35H6.69537C4.88765 35 3.34197 34.3582 2.05833 33.0745C0.774692 31.7909 0.132874 30.2452 0.132874 28.4375V6.5625C0.132874 4.75477 0.774692 3.20909 2.05833 1.92546C3.34197 0.641819 4.88765 0 6.69537 0H28.5704C30.3781 0 31.9238 0.641819 33.2074 1.92546C34.4911 3.20909 35.1329 4.75477 35.1329 6.5625Z" fill="white"/>
</g>
<defs>
<clipPath id="clip0_41_6">
<rect width="35" height="35" fill="white" transform="translate(0.132874)"/>
</clipPath>
</defs>
</svg>
