<svg width="21" height="20" viewBox="0 0 21 20" fill="none" xmlns="http://www.w3.org/2000/svg">
<path d="M17.6329 3.75H2.63287C2.30135 3.75 1.98341 3.8817 1.74899 4.11612C1.51457 4.35054 1.38287 4.66848 1.38287 5V15C1.38287 15.3315 1.51457 15.6495 1.74899 15.8839C1.98341 16.1183 2.30135 16.25 2.63287 16.25H17.6329C17.9644 16.25 18.2823 16.1183 18.5168 15.8839C18.7512 15.6495 18.8829 15.3315 18.8829 15V5C18.8829 4.66848 18.7512 4.35054 18.5168 4.11612C18.2823 3.8817 17.9644 3.75 17.6329 3.75ZM16.2579 5L10.1329 9.2375L4.00787 5H16.2579ZM2.63287 15V5.56875L9.77662 10.5125C9.88125 10.5851 10.0055 10.624 10.1329 10.624C10.2602 10.624 10.3845 10.5851 10.4891 10.5125L17.6329 5.56875V15H2.63287Z" fill="#C4C4C4"/>
</svg>
