<svg width="21" height="21" viewBox="0 0 21 21" fill="none" xmlns="http://www.w3.org/2000/svg">
<path d="M18.3399 10.8009L10.793 3.21601L10.2872 2.70734C10.1719 2.59221 10.0161 2.52759 9.8536 2.52759C9.69113 2.52759 9.53526 2.59221 9.42 2.70734L1.36727 10.8009C1.24917 10.9192 1.15583 11.0601 1.09276 11.2152C1.0297 11.3704 0.998182 11.5367 1.00008 11.7043C1.00789 12.3956 1.58016 12.9475 2.26766 12.9475H3.09774V19.3441H16.6095V12.9475H17.4571C17.7911 12.9475 18.1055 12.8159 18.3419 12.5783C18.4582 12.4616 18.5504 12.3229 18.6131 12.1702C18.6758 12.0175 18.7078 11.8538 18.7071 11.6886C18.7071 11.3547 18.5763 11.0385 18.3399 10.8009ZM10.9473 17.9301H8.75985V13.9236H10.9473V17.9301ZM15.2032 11.5334V17.9301H12.1973V13.4522C12.1973 13.0182 11.8477 12.6666 11.4161 12.6666H8.2911C7.85946 12.6666 7.50985 13.0182 7.50985 13.4522V17.9301H4.50399V11.5334H2.62899L9.85555 4.27263L10.3067 4.7263L17.0802 11.5334H15.2032Z" fill="#C4C4C4"/>
</svg>
