<svg width="21" height="20" viewBox="0 0 21 20" fill="none" xmlns="http://www.w3.org/2000/svg">
<path d="M10.1329 1.66663C5.53787 1.66663 1.79954 5.40496 1.79954 9.99996V13.4525C1.79954 14.3058 2.54704 15 3.46621 15H4.29954C4.52055 15 4.73252 14.9122 4.8888 14.7559C5.04508 14.5996 5.13287 14.3876 5.13287 14.1666V9.88079C5.13287 9.65978 5.04508 9.44782 4.8888 9.29154C4.73252 9.13526 4.52055 9.04746 4.29954 9.04746H3.54287C4.00621 5.82246 6.78121 3.33329 10.1329 3.33329C13.4845 3.33329 16.2595 5.82246 16.7229 9.04746H15.9662C15.7452 9.04746 15.5332 9.13526 15.377 9.29154C15.2207 9.44782 15.1329 9.65978 15.1329 9.88079V15C15.1329 15.9191 14.3854 16.6666 13.4662 16.6666H11.7995V15.8333H8.46621V18.3333H13.4662C15.3045 18.3333 16.7995 16.8383 16.7995 15C17.7187 15 18.4662 14.3058 18.4662 13.4525V9.99996C18.4662 5.40496 14.7279 1.66663 10.1329 1.66663Z" fill="#C4C4C4"/>
</svg>
